<svg width="91" height="91" xmlns="http://www.w3.org/2000/svg">

 <g>
  <title>background</title>
  <rect fill="none" id="canvas_background" height="402" width="582" y="-1" x="-1"/>
 </g>
 <g>
  <title>Layer 1</title>
  <path id="svg_3" fill="#e38360" d="m24.018,49.415l18.131,18.125l38.119,-38.122l-18.123,-18.126l-38.127,38.123zm42.426,-24.297c1.259,1.262 1.259,3.306 0,4.566l-22.075,22.069c-0.629,0.633 -1.455,0.946 -2.278,0.946c-0.831,0 -1.655,-0.313 -2.284,-0.946c-1.261,-1.262 -1.261,-3.305 0,-4.565l22.072,-22.07c1.259,-1.261 3.304,-1.261 4.565,0z"/>
  <polygon id="svg_4" points="15.851048544049263,75.44695465266705 35.9940472394228,70.26194946467876 21.24204833805561,55.50995056331158 " fill="#e38360"/>
  <path id="svg_5" fill="#e38360" d="m87.621,12.533l-8.593,-8.596c-2.548,-2.546 -6.992,-2.543 -9.53,0l-2.792,2.793l18.129,18.124l2.786,-2.788c2.623,-2.63 2.623,-6.907 0,-9.533z"/>
  <path id="svg_6" fill="#3b7c77" d="m79.585,89.554l-76.124,0c-1.833,0 -3.318,-1.486 -3.318,-3.319l0,-80.723c0,-1.833 1.484,-3.318 3.318,-3.318l51.113,0c1.835,0 3.317,1.485 3.317,3.318c0,1.832 -1.482,3.318 -3.317,3.318l-47.795,0l0,74.086l72.806,0c2.592,0 4.701,-2.108 4.701,-4.701l0,-41.627c0,-1.833 1.484,-3.318 3.317,-3.318c1.832,0 3.318,1.485 3.318,3.318l0,41.627c0.001,6.252 -5.085,11.339 -11.336,11.339z"/>
 </g>
</svg>